<?xml version="1.0" encoding="utf-8"?>
<!-- Generator: Adobe Illustrator 21.0.0, SVG Export Plug-In . SVG Version: 6.00 Build 0)  -->
<svg version="1.1" id="Layer_1" xmlns="http://www.w3.org/2000/svg" xmlns:xlink="http://www.w3.org/1999/xlink" x="0px" y="0px"
	 viewBox="0 0 54 32" style="enable-background:new 0 0 54 32;" xml:space="preserve">
<g>
	<path d="M8.21,22.05c6.11-13.44,7.86-17.36,8.26-19.1c0.38-1.67-0.81-2.11-2.7-1.91c-1.5,0.16-3.21,0.99-3.14,1.4
		c0.62,3.26-2.91,12.81-4.96,18.53c-1.66-0.7-3.49-1.39-4.33,0.1c-1.26,2.26,1.26,7.3,3.39,6.33c1.39-0.63,1.92-1.93,2.34-2.84
		c3.7,1.57,12.03,5.82,14.04,6.27c3.68,0.81,6.16-1.48,6.26-4.98C20.9,27.66,10.77,23.14,8.21,22.05z M3.65,24.94
		c-0.64,0.01-1.28-1.36-1.02-1.78c0.24-0.37,2.1,0.42,2.1,0.42C4.59,23.97,4.27,24.93,3.65,24.94z"/>
	<path d="M21.32,6.5c0.29-0.68,0.99-2.52-1.13-2.44c-1.83,0.07-2.32,0.36-2.83,2.59C16.49,10.47,20.01,9.53,21.32,6.5z"/>
	<path d="M51.02,10.39c-1.01,0-2.61,1.47-4.88,4.49c0.84-1.54,1.6-3.08,1.6-3.92c0-0.78-0.56-1.2-1.59-1.2c-0.66,0-3,0.46-2.79,1.01
		c0.35,0.9-0.47,3.01-1.31,5.29c-1.73,2.3-3.71,4.77-4.23,4.74c-0.33-0.02-0.3-2.08,2.9-6.7c0.24-0.36,0.35-0.65,0.35-0.92
		c0-1.15-1.87-1.57-3.01-1.64c-0.85,1.08-2.24,4.77-2.69,6.07c-1.28,2.26-2.61,3.47-3.21,3.47c-0.25,0-0.31-0.11-0.33-0.14
		c-0.35-0.6,1.01-2.95,2.21-5.01c1.28-2.21,2.6-4.5,2.6-5.7c0-0.78-0.56-1.2-1.59-1.2c-0.66,0-3,0.46-2.79,1.01
		c0.12,0.3,0.21,1.42-0.71,3.67c-2.08,2.81-6.41,8.19-9.18,8.19c-0.86,0-0.81-0.79-0.67-1.85c2.34-0.83,7.49-4.45,7.85-6.26
		c0.45-2.25-0.95-4.02-3.63-4.02c-2.04,0-4.33,2.61-5.72,5.53c-1.87,2.31-4.55,5.48-5.08,5.51c-0.46,0.02,0.54-1.88,0.76-2.29
		c1.04-1.99,3.33-5.57,3.33-7.03c0-0.78-0.56-1.2-1.59-1.2c-0.66,0-3,0.46-2.79,1.01c0.4,1.01-0.93,4-1.36,4.98
		c-2.08,5.11-0.4,7.19,1.21,7.19c0.45,0,0.77-0.19,1.65-1.14c0.75-0.8,1.71-2.03,2.68-3.32c-0.05,0.38-0.09,0.75-0.09,1.09
		c0,2.18,1.58,3.77,3.77,3.77c2.19,0,4.89-2.86,7.09-5.76c-0.27,0.86-0.44,1.73-0.44,2.56c0,2.15,1.11,2.79,1.8,2.79
		c1.13,0,2.56-1.37,3.6-2.55c0.2,2.22,1.34,2.96,2.04,2.96c0.82,0.01,2.41-1.75,4.03-3.87c-0.12,0.57-0.19,1.1-0.19,1.59
		c0,1.82,1.94,1.87,2.91,1.87c0.86-5.81,2.72-7.9,4.24-8.62c-0.08,0.69,0.06,1.36,0.51,1.81c0.27,0.27,0.62,0.41,1.03,0.41
		c0.76-0.01,1.56-0.35,2.25-0.7c-0.3-0.69-0.63-1.14-0.62-1.76c0.02-1.13,0.85-1.7,1.39-2.08c0.29-0.2,0.47-0.32,0.47-0.5
		C52.82,11.59,51.94,10.39,51.02,10.39z M26.95,13.37c0.44,1.07-1.56,2.73-4.89,5C23.29,15.02,26.57,12.44,26.95,13.37z"/>
</g>
</svg>
